<svg id="Layer_1" enable-background="new 0 0 512.001 512.001" height="512" viewBox="0 0 512.001 512.001" width="512" xmlns="http://www.w3.org/2000/svg"><g><g clip-rule="evenodd" fill-rule="evenodd"><path d="m130 351.975v-50c0-17.656-11.594-32.732-27.542-37.998-6.802 10.791-18.829 17.998-32.458 17.998s-25.656-7.207-32.456-18c-15.95 5.268-27.544 20.345-27.544 38v50c0 17.669 7.743 33.616 20 44.621v40.303 55.077c0 5.5 4.499 10 10 10h15c5.616 0 10.814-1.877 15-5.035 4.186 3.157 9.384 5.035 15 5.035h15c5.5 0 10-4.5 10-10v-55.077-40.303c12.257-11.004 20-26.952 20-44.621z" fill="#ffbecb"/><path d="m102.458 263.977c3.722-5.905 5.88-12.883 5.88-20.34v-19.17c0-21.086-17.252-38.338-38.338-38.338s-38.338 17.252-38.338 38.338v19.17c0 7.457 2.158 14.435 5.88 20.34 6.803 10.791 18.83 17.998 32.458 17.998 13.628.001 25.656-7.206 32.458-17.998z" fill="#ffeae6"/><path d="m502.001 351.975v-50c0-17.656-11.594-32.732-27.542-37.998-6.802 10.791-18.829 17.998-32.458 17.998s-25.656-7.207-32.456-18c-15.95 5.267-27.543 20.344-27.543 37.999v50c0 17.669 7.743 33.616 20 44.621v40.303 55.077c0 5.5 4.499 10 10 10h15c5.616 0 10.814-1.877 15-5.035 4.186 3.157 9.384 5.035 15 5.035h15c5.5 0 10-4.5 10-10v-55.077-40.303c12.256-11.003 19.999-26.951 19.999-44.62z" fill="#e3eaef"/><path d="m474.459 263.977c3.722-5.905 5.88-12.883 5.88-20.34v-19.17c0-21.086-17.252-38.338-38.338-38.338s-38.338 17.252-38.338 38.338v19.17c0 7.457 2.158 14.435 5.88 20.34 6.803 10.791 18.83 17.998 32.458 17.998 13.629.001 25.656-7.206 32.458-17.998z" fill="#ffeae6"/><path d="m110 491.976v-55.077-40.303h-80v40.303 55.077c0 5.5 4.499 10 10 10h15c5.616 0 10.814-1.877 15-5.035 4.186 3.157 9.384 5.035 15 5.035h15c5.5 0 10-4.5 10-10z" fill="#e3eaef"/><path d="m402.001 436.899v55.077c0 5.5 4.499 10 10 10h15c5.616 0 10.815-1.877 15-5.035 4.186 3.157 9.384 5.035 15 5.035h15c5.5 0 10-4.5 10-10v-55.077-40.303h-80z" fill="#ffbecb"/><path d="m204.503 94.337c-7.809 7.81-7.809 20.472 0 28.281l25.902 25.902c7.809 7.809 20.472 7.809 28.281 0l48.812-48.812c7.809-7.809 7.809-20.472 0-28.281s-20.472-7.809-28.281 0l-34.671 34.671-11.761-11.761c-7.81-7.809-20.472-7.809-28.282 0z" fill="#e0ef9b"/><path d="m204.503 94.337c7.809-7.809 20.472-7.809 28.281 0l11.761 11.761 34.671-34.671c7.809-7.809 20.472-7.809 28.281 0 7.809 7.81 7.809 20.472 0 28.281l-48.812 48.812c-7.809 7.809-20.472 7.809-28.281 0l-25.902-25.902c-7.808-7.809-7.808-20.471.001-28.281zm122.208-55.074c-39.052-39.052-102.369-39.052-141.421 0-39.052 39.053-39.052 102.369 0 141.421 13.529 13.529 29.971 22.368 47.307 26.523 5.54 9.602 11.079 19.204 16.622 28.804 2.901 5.182 10.468 5.355 13.516.092 5.564-9.637 11.12-19.267 16.675-28.898 17.333-4.155 33.773-12.993 47.3-26.521 39.054-39.052 39.054-102.368.001-141.421z" fill="#fff"/></g><g fill="#a2c0c1"><path d="m115.764 259.167c1.66-4.878 2.574-10.097 2.574-15.529v-19.17c0-26.653-21.685-48.338-48.338-48.338s-48.338 21.685-48.338 48.338v19.17c0 5.432.914 10.651 2.574 15.529-14.802 8.947-24.236 25.142-24.236 42.809v50c0 18.252 7.237 35.82 20 48.88v91.121c0 11.027 8.972 19.999 20 19.999h15c5.261 0 10.346-1.156 15-3.384 4.654 2.228 9.74 3.384 15 3.384h15c11.028 0 20-8.972 20-19.999v-91.121c12.763-13.06 20-30.627 20-48.88v-50c0-17.667-9.434-33.862-24.236-42.809zm-74.103-34.699c0-15.626 12.712-28.338 28.338-28.338 15.625 0 28.338 12.712 28.338 28.338v19.17c0 15.626-12.712 28.338-28.338 28.338s-28.338-12.712-28.338-28.338zm78.339 127.508c0 14.11-6.08 27.662-16.681 37.18-2.112 1.897-3.319 4.603-3.319 7.441v95.379h-15c-3.256 0-6.361-1.044-8.978-3.018-3.563-2.688-8.479-2.689-12.043 0-2.618 1.974-5.723 3.018-8.979 3.018l-15 .001v-95.38c0-2.839-1.207-5.544-3.319-7.44-10.601-9.519-16.681-23.071-16.681-37.181v-50c0-10.552 5.637-20.217 14.47-25.605 8.839 9.587 21.493 15.605 35.53 15.605s26.69-6.019 35.529-15.606c8.834 5.388 14.471 15.053 14.471 25.606z"/><path d="m487.766 259.166c1.66-4.878 2.574-10.097 2.574-15.529v-19.17c0-26.653-21.685-48.338-48.338-48.338s-48.338 21.685-48.338 48.338v19.17c0 5.432.914 10.651 2.574 15.529-14.801 8.948-24.235 25.142-24.235 42.809v50c0 18.252 7.237 35.82 20 48.88v91.121c0 11.027 8.972 19.999 20 19.999h15c5.26 0 10.346-1.156 15-3.384 4.654 2.228 9.74 3.384 15 3.384h15c11.028 0 20-8.972 20-19.999v-91.121c12.763-13.059 20-30.626 20-48.88v-50c-.002-17.666-9.436-33.861-24.237-42.809zm-74.103-34.698c0-15.626 12.712-28.338 28.338-28.338 15.625 0 28.338 12.712 28.338 28.338v19.17c0 15.626-12.712 28.338-28.338 28.338s-28.338-12.712-28.338-28.338zm78.338 127.508c0 14.11-6.08 27.662-16.681 37.18-2.113 1.897-3.319 4.603-3.319 7.441v95.379h-15c-3.256 0-6.361-1.044-8.978-3.018-3.564-2.689-8.479-2.689-12.044 0-2.617 1.974-5.722 3.018-8.978 3.018l-15 .001v-95.38c0-2.839-1.207-5.544-3.319-7.44-10.601-9.519-16.681-23.07-16.681-37.181v-50c0-10.552 5.637-20.217 14.47-25.605 8.839 9.587 21.493 15.605 35.53 15.605s26.69-6.019 35.529-15.606c8.834 5.388 14.471 15.053 14.471 25.606z"/><path d="m301.469 294.307c-3.905-3.903-10.237-3.904-14.142 0-3.906 3.905-3.906 10.237 0 14.143l8.526 8.526h-79.703l8.527-8.526c3.905-3.905 3.905-10.237 0-14.143-3.905-3.904-10.237-3.904-14.143 0l-25.598 25.598c-3.905 3.905-3.905 10.237 0 14.143l25.598 25.598c1.953 1.952 4.512 2.929 7.071 2.929s5.119-.977 7.071-2.929c3.905-3.905 3.905-10.237 0-14.143l-8.527-8.526h79.703l-8.526 8.526c-3.905 3.905-3.905 10.237 0 14.143 1.953 1.952 4.512 2.929 7.071 2.929s5.119-.977 7.071-2.929l25.597-25.598c3.905-3.905 3.905-10.237 0-14.143z"/><path d="m178.219 32.192c-20.776 20.776-32.218 48.4-32.218 77.782s11.442 57.005 32.218 77.781c13.332 13.332 29.785 22.979 47.806 28.069l14.506 25.138c3.118 5.514 8.996 8.965 15.359 9.012h.137c6.409 0 12.145-3.305 15.369-8.871l14.588-25.28c18.018-5.091 34.468-14.737 47.798-28.067 20.777-20.777 32.218-48.4 32.218-77.781s-11.442-57.006-32.218-77.782c-42.889-42.889-112.674-42.889-155.563-.001zm141.421 141.421c-11.758 11.759-26.476 20.013-42.56 23.868-2.67.64-4.958 2.35-6.331 4.728l-14.746 25.553-14.745-25.552c-1.372-2.379-3.662-4.088-6.332-4.728-16.087-3.855-30.807-12.108-42.567-23.869-16.999-16.998-26.36-39.599-26.36-63.639s9.361-46.641 26.36-63.64c17.545-17.546 40.592-26.318 63.64-26.318 23.047 0 46.094 8.772 63.639 26.318 16.999 16.999 26.36 39.6 26.36 63.64s-9.359 46.641-26.358 63.639z"/></g></g></svg>