<svg id="Capa_1" enable-background="new 0 0 512 512" height="512" viewBox="0 0 512 512" width="512" xmlns="http://www.w3.org/2000/svg"><g><g><g><g><g><g><g><g><path d="m332.194 500.47c-24.068 7.493-49.66 11.53-76.194 11.53-29.163 0-57.188-4.876-83.302-13.859l-119.546-85.952c-33.329-43.221-53.152-97.39-53.152-156.189 0-141.385 114.615-256 256-256s256 114.615 256 256c0 60.56-21.029 116.209-56.183 160.043z" fill="#64e1dc"/></g></g></g></g></g></g></g><g fill="#00c8c8"><path d="m172.698 498.141c26.115 8.982 54.139 13.859 83.302 13.859 29.951 0 58.701-5.144 85.415-14.596v-57.868h-168.717z"/><path d="m147.15 118.827 165.312 165.312-108.041 110.763"/><path d="m197.134 74.992 131.599 131.598 23.325 21.394-25.003 35.699-135.549-135.549"/><path d="m398.483 146.115-57.069-57.069-29.587 11.763-40.807-40.809-30.04 45.266 114.75 114.75 12.889 12.642-32.579 74.281-44.627 79.563 109.134 44.889 40.87 1.121c43.736-45.928 70.583-108.085 70.583-176.512 0-13.001-.969-25.776-2.839-38.256l-79.246-79.246z"/></g><path d="m240.98 60h30.04v45.266h-30.04z" fill="#fff"/><path d="m256 60h15.02v45.266h-15.02z" fill="#e9edf5"/><g><g><path d="m320.494 128.134-26.549-14.054 20.921-39.088 26.549 14.054z" fill="#e9edf5"/></g><g><path d="m191.506 128.134 26.549-14.054-20.921-39.088-26.549 14.054z" fill="#fff"/></g></g><path d="m354.938 116.968-2.088 1.859c-8.102 7.213-14.255 16.352-17.891 26.572l-22.504 63.27 67.679 33.009 42.142-37.024c11.478-10.084 16.942-25.375 14.455-40.45l-2.421-14.671c-1.464-8.876-7.138-16.492-15.223-20.435l-33.517-16.348c-10.12-4.936-22.221-3.27-30.632 4.218z" fill="#ffcdbe"/><path d="m436.732 164.204-2.421-14.67c-1.464-8.876-7.138-16.492-15.223-20.436l-18.605-9.074-48.425 107.96 28.077 13.694 42.142-37.024c11.478-10.084 16.942-25.375 14.455-40.45z" fill="#ffbeaa"/><path d="m455.816 416.044-110.774-50.129 61.218-140.771-90.149-44.126-103.537 193.446c-13.533 30.426-1.524 66.147 27.641 82.218l91.978 43.787c49.243-15.33 92.109-45.13 123.623-84.425z" fill="#7584f2"/><path d="m345.042 365.915 61.218-140.771-43.4-21.243-115.014 256.414 84.347 40.154c49.243-15.331 92.109-45.13 123.623-84.425z" fill="#606aea"/><path d="m145.062 116.968 2.088 1.859c8.102 7.213 14.255 16.352 17.891 26.572l22.504 63.27-67.679 33.009-42.142-37.024c-11.478-10.084-16.942-25.375-14.455-40.45l2.421-14.671c1.464-8.876 7.138-16.492 15.223-20.435l33.517-16.348c10.12-4.936 22.221-3.27 30.632 4.218z" fill="#ffcdbe"/><path d="m187.544 208.669-22.503-63.271c-3.635-10.22-9.788-19.359-17.891-26.572l-2.088-1.859c-8.411-7.488-20.511-9.153-30.633-4.217l-12.923 6.303 47.008 108.652z" fill="#ffbeaa"/><path d="m183.888 181.018-90.148 44.126 61.218 140.771-101.922 46.124c30.291 39.341 71.764 69.628 119.662 86.103l87.087-41.458c29.165-16.071 41.173-51.792 27.641-82.218z" fill="#fe6a16"/><path d="m287.426 374.464-103.538-193.446-45.862 22.448 111.637 258.035 10.122-4.818c29.165-16.072 41.173-51.793 27.641-82.219z" fill="#f24500"/></g></svg>