<svg height="512pt" viewBox="-88 0 512 512.0002" width="512pt" xmlns="http://www.w3.org/2000/svg"><path d="m264.9375 193.871094 45.101562-19.15625c8.796876-3.5 15.0625-11.429688 16.429688-20.800782 1.367188-9.371093-2.367188-18.757812-9.800781-24.628906-7.429688-5.867187-17.429688-7.328125-26.226563-3.828125l-25.679687 10.859375zm0 0" fill="#fdd7ad"/><path d="m310.046875 175.050781-45.109375 19.15625-.175781-57.554687h.085937l.089844 39.898437 45.109375-19.15625c7.105469-2.84375 12.617187-8.644531 15.09375-15.886719 4.878906 13.421876-1.8125 28.289063-15.09375 33.542969zm0 0" fill="#cbb292"/><path d="m53.074219 256 185.140625 150.070312s-8.828125 17.652344-43.757813 37.5c-5.632812 3.117188-9.148437 9.027344-9.207031 15.464844v35.308594c0 9.753906-7.902344 17.65625-17.65625 17.65625h-105.929688c-9.75 0-17.65625-7.902344-17.65625-17.65625v-26.050781c0-16.171875-11.394531-29.863281-19.488281-42.996094-15.378906-24.957031-22.292969-26.121094-24.410156-54.539063zm0 0" fill="#fdd7ad"/><path d="m273.765625 377.996094v1.589844c.015625.5625-.015625 1.121093-.089844 1.675781-.820312 13.964843-12.40625 24.855469-26.394531 24.808593h-158.894531c-14.628907 0-26.484375-11.859374-26.484375-26.484374v-353.101563c0-14.628906 11.855468-26.484375 26.484375-26.484375h158.894531c14.625 0 26.484375 11.855469 26.484375 26.484375zm0 0" fill="#90bae1"/><path d="m88.386719 485.515625h-8.828125c-4.875 0-8.828125-3.949219-8.828125-8.824219s3.953125-8.828125 8.828125-8.828125h8.828125c4.875 0 8.828125 3.953125 8.828125 8.828125s-3.953125 8.824219-8.828125 8.824219zm0 0" fill="#fee7ce"/><path d="m150.179688 485.515625h-26.484376c-4.875 0-8.828124-3.949219-8.828124-8.824219s3.953124-8.828125 8.828124-8.828125h26.484376c4.875 0 8.828124 3.953125 8.828124 8.828125s-3.953124 8.824219-8.828124 8.824219zm0 0" fill="#fee7ce"/><path d="m272.265625 17.832031c-35.753906 32.839844-155.191406 155.367188-208.246094 372.082031-1.425781-3.253906-2.148437-6.773437-2.117187-10.328124v-353.101563c0-14.628906 11.855468-26.484375 26.484375-26.484375h158.894531c11.296875-.0429688 21.355469 7.136719 24.984375 17.832031zm0 0" fill="#b0d3f0"/><path d="m238.453125 0h-8.824219c-4.878906 0-8.828125 3.953125-8.828125 8.828125v8.828125c0 9.75-7.90625 17.65625-17.65625 17.65625h-70.621093c-9.75 0-17.65625-7.90625-17.65625-17.65625v-8.828125c0-4.875-3.949219-8.828125-8.828126-8.828125h-8.824218" fill="#35495e"/><path d="m203.144531 379.585938h-70.621093c-4.875 0-8.828126-3.953126-8.828126-8.828126s3.953126-8.828124 8.828126-8.828124h70.621093c4.875 0 8.828125 3.953124 8.828125 8.828124s-3.953125 8.828126-8.828125 8.828126zm0 0" fill="#35495e"/><path d="m97.214844 79.449219c-4.878906 0-8.828125-3.953125-8.828125-8.828125v-8.828125c0-4.875 3.949219-8.828125 8.828125-8.828125 4.875 0 8.824218 3.953125 8.824218 8.828125v8.828125c0 4.875-3.949218 8.828125-8.824218 8.828125zm0 0" fill="#e6e7e8"/><path d="m97.214844 158.898438c-4.878906 0-8.828125-3.953126-8.828125-8.828126v-44.140624c0-4.875 3.949219-8.824219 8.828125-8.824219 4.875 0 8.824218 3.949219 8.824218 8.824219v44.140624c0 4.875-3.949218 8.828126-8.824218 8.828126zm0 0" fill="#e6e7e8"/><g fill="#fdd7ad"><path d="m.234375 370.757812c-1.085937-14.601562 1.949219-54.414062 2.328125-69.144531.382812-14.734375-1.199219-30.710937-.722656-45.023437.679687-20.425782 11.644531-34.320313 17.132812-53.589844 3.375-12.277344 5.816406-24.789062 7.3125-37.429688.96875-8.796874 8.382813-15.464843 17.230469-15.5h1.5625s34.363281 0 34.363281 52.964844c1.316406 5.296875-8.824218 70.621094-26.480468 79.449219zm0 0"/><path d="m335.558594 247.171875c0 14.625-11.855469 26.484375-26.484375 26.484375h-26.480469c-14.628906 0-26.484375-11.859375-26.484375-26.484375s11.855469-26.480469 26.484375-26.480469h26.480469c14.628906 0 26.484375 11.855469 26.484375 26.480469zm0 0"/><path d="m326.730469 300.136719c0 14.628906-11.855469 26.484375-26.484375 26.484375h-17.652344c-3.015625.019531-6.007812-.519532-8.828125-1.589844-12.050781-4.371094-19.238281-16.746094-17.066406-29.378906 2.167969-12.632813 13.074219-21.898438 25.894531-21.996094h17.652344c14.628906 0 26.484375 11.855469 26.484375 26.480469zm0 0"/><path d="m318.167969 353.105469c0 14.625-11.855469 26.480469-26.484375 26.480469h-9.089844c-14.628906 0-26.484375-11.855469-26.484375-26.480469 0-14.628907 11.855469-26.484375 26.484375-26.484375h9.089844c14.628906 0 26.484375 11.855468 26.484375 26.484375zm0 0"/></g><path d="m335.558594 247.171875c-.007813 9.03125-4.59375 17.4375-12.183594 22.335937-4.285156 2.6875-9.238281 4.125-14.300781 4.148438h-26.480469c-14.605469-.054688-26.429688-11.878906-26.484375-26.484375-.019531-3.015625.519531-6.007813 1.589844-8.828125 3.660156 10.609375 13.671875 17.710938 24.894531 17.65625h26.480469c11.222656.054688 21.234375-7.046875 24.894531-17.65625 1.070312 2.820312 1.609375 5.8125 1.589844 8.828125zm0 0" fill="#cbb292"/><path d="m326.730469 300.136719c.039062 7.039062-2.738281 13.796875-7.710938 18.773437-4.976562 4.972656-11.734375 7.75-18.773437 7.710938h-18.359375c-2.777344-.074219-5.519531-.613282-8.121094-1.589844-4.191406-1.421875-7.933594-3.917969-10.859375-7.238281-4.386719-4.832031-6.8125-11.128907-6.796875-17.65625-.019531-2.984375.519531-5.949219 1.589844-8.738281 2.605469 7.519531 8.53125 13.414062 16.066406 15.976562 2.820313 1.070312 5.8125 1.609375 8.828125 1.589844h17.652344c11.222656.054687 21.234375-7.046875 24.894531-17.652344 1.070313 2.816406 1.609375 5.808594 1.589844 8.824219zm0 0" fill="#cbb292"/><path d="m318.167969 353.105469c0 14.625-11.855469 26.480469-26.484375 26.480469h-9.089844c-14.628906 0-26.484375-11.855469-26.484375-26.480469-.019531-3.015625.519531-6.011719 1.589844-8.828125 3.660156 10.609375 13.671875 17.707031 24.894531 17.652344h9.089844c11.238281.035156 21.261718-7.050782 24.984375-17.652344.996093 2.835937 1.503906 5.820312 1.5 8.828125zm0 0" fill="#cbb292"/><path d="m47.117188 279.535156c-2.472657-1.28125-4.285157-3.546875-4.988282-6.238281-.707031-2.691406-.242187-5.558594 1.28125-7.886719 12.65625-20.222656 19.605469-66.789062 18.492188-71.203125 0-23.65625-6.796875-36.722656-14.386719-43.871093 7.941406 1.144531 31.953125 8.472656 31.953125 52.699218 1.167969 4.660156-6.558594 55.824219-20.460938 74.035156-2.867187 3.554688-7.847656 4.585938-11.890624 2.464844zm0 0" fill="#cbb292"/></svg>