<svg id="Capa_1" enable-background="new 0 0 504.5 504.5" height="512" viewBox="0 0 504.5 504.5" width="512" xmlns="http://www.w3.org/2000/svg"><g><path d="m136 285v196.592l-24.87 8.29c-3.93 1.31-6.053 5.557-4.744 9.487 1.31 3.93 5.559 6.054 9.487 4.744l29.998-10c3.063-1.021 5.128-3.887 5.128-7.115v-201.998z" fill="#e18f4e"/><path d="m211 285v196.592l24.87 8.29c3.93 1.31 6.053 5.557 4.744 9.487-1.31 3.93-5.559 6.054-9.487 4.744l-29.998-10c-3.063-1.021-5.128-3.887-5.128-7.115v-201.998z" fill="#c27749"/><path d="m128.5 177.5c-45.491 0-82.5-37.009-82.5-82.5 0-4.142-3.358-7.5-7.5-7.5s-7.5 3.358-7.5 7.5c0 53.762 43.738 97.5 97.5 97.5h45v-15z" fill="#fff0d3"/><path d="m473.5 0v120l-96.67 60 66.67-180z" fill="#ff8646"/><path d="m443.5 89.998-30-29.999 30-30v-29.999h-180v120l179.999 60z" fill="#ffa754"/><path d="m473.5 120v165h-30l-75-82.5 74.999-82.5z" fill="#ffa754"/><path d="m293.5 120h-30v165h180v-30z" fill="#ffcb63"/><path d="m443.5 90h-30l-45-30 45-30h30z" fill="#7dd9ff"/><path d="m293.5 30h120v60h-120z" fill="#a8e5ff"/><path d="m443.5 255h-30l-45-67.5 45-67.5h30z" fill="#2dade3"/><path d="m293.5 120h120v135h-120z" fill="#49c9ff"/><path d="m218.5 255-60-60 30 132.429v87.571c0 8.284 6.716 15 15 15 7.636 0 13.925-5.71 14.865-13.09l14.629-114.567c.322-2.516.506-5.074.506-7.678 0-15.211-5.671-29.09-15-39.665z" fill="#a8e5ff"/><path d="m188.5 195-60 60c-9.329 10.575-15 24.454-15 39.665 0 2.603.184 5.162.506 7.678l14.629 114.568c.941 7.38 7.23 13.089 14.865 13.089 8.284 0 15-6.716 15-15v-87.571c4.693 1.659 9.739 2.571 15 2.571s10.307-.912 15-2.571z" fill="#dbf4ff"/><path d="m188.5 255h30v-30l-60-30z" fill="#c27749"/><path d="m188.5 255h-60v-30l60-30z" fill="#e18f4e"/><path d="m198.5 165h-30l20 60h30v-40c0-11.046-8.954-20-20-20z" fill="#ffe2a8"/><path d="m168.5 165h-20c-11.046 0-20 8.954-20 20v40h60v-40c0-11.046-8.954-20-20-20z" fill="#fff0d3"/><path d="m200.5 54h-27v81c24.85 0 45-20.15 45-45 0-14.72-7.07-27.8-18-36z" fill="#c27749"/><path d="m186.7 68.64c1.15 6.36 1.8 13.63 1.8 21.36 0 24.85-6.72 45-15 45-24.85 0-45-20.15-45-45z" fill="#e18f4e"/><path d="m200.5 54c-4.04 5.38-8.67 10.29-13.8 14.64l-13.2-23.64c10.12 0 19.48 3.35 27 9z" fill="#60312c"/><g fill="#85453d"><path d="m128.5 90c0-24.85 20.15-45 45-45 5.7 0 10.67 9.56 13.2 23.64-15.69 13.32-36.01 21.36-58.2 21.36z"/><path d="m93.5 105.793c-5.907-2.811-10-8.816-10-15.793s4.093-12.982 10-15.793c0-9.665 7.835-17.5 17.5-17.5s17.5 7.835 17.5 17.5v31.586c0 9.665-7.835 17.5-17.5 17.5s-17.5-7.835-17.5-17.5z"/></g></g></svg>