<svg width="44" height="44" viewBox="0 0 44 44" fill="none" xmlns="http://www.w3.org/2000/svg">
<rect x="0.5" y="0.5" width="43" height="43" fill="white" stroke="#1976D2"/>
<path d="M13.7088 16.375H7V37H13.7088V16.375Z" fill="#1976D2"/>
<path d="M31.9825 16.6169C31.9113 16.5944 31.8438 16.57 31.7688 16.5494C31.6788 16.5287 31.5887 16.5119 31.4969 16.4969C31.1406 16.4256 30.7506 16.375 30.2931 16.375C26.3819 16.375 23.9012 19.2194 23.0838 20.3181V16.375H16.375V37H23.0838V25.75C23.0838 25.75 28.1538 18.6888 30.2931 23.875C30.2931 28.5044 30.2931 37 30.2931 37H37V23.0819C37 19.9656 34.8644 17.3688 31.9825 16.6169Z" fill="#1976D2"/>
<path d="M10.2812 13.5625C12.0934 13.5625 13.5625 12.0934 13.5625 10.2812C13.5625 8.46907 12.0934 7 10.2812 7C8.46907 7 7 8.46907 7 10.2812C7 12.0934 8.46907 13.5625 10.2812 13.5625Z" fill="#1976D2"/>
</svg>
